<svg xmlns="http://www.w3.org/2000/svg" version="1.1" xmlns:xlink="http://www.w3.org/1999/xlink" xmlns:svgjs="http://svgjs.dev/svgjs" width="1500" height="1500" viewBox="0 0 1500 1500"><rect width="1500" height="1500" fill="#000000"></rect><g transform="matrix(0.6666666666666666,0,0,0.6666666666666666,249.39393939393938,438.5856950067477)"><svg viewBox="0 0 396 247" data-background-color="#ffffff" preserveAspectRatio="xMidYMid meet" height="935" width="1500" xmlns="http://www.w3.org/2000/svg" xmlns:xlink="http://www.w3.org/1999/xlink"><g id="tight-bounds" transform="matrix(1,0,0,1,0.2400000000000091,-0.09999999999999432)"><svg viewBox="0 0 395.52 247.2" height="247.2" width="395.52"><g><svg></svg></g><g><svg viewBox="0 0 395.52 247.2" height="247.2" width="395.52"><g transform="matrix(1,0,0,1,75.54432,104.27966870385828)"><svg viewBox="0 0 244.43135999999998 38.64066259228343" height="38.64066259228343" width="244.43135999999998"><g><svg viewBox="0 0 244.43135999999998 38.64066259228343" height="38.64066259228343" width="244.43135999999998"><g><svg viewBox="0 0 244.43135999999998 38.64066259228343" height="38.64066259228343" width="244.43135999999998"><g><svg viewBox="0 0 244.43135999999998 38.64066259228343" height="38.64066259228343" width="244.43135999999998"><g id="textblocktransform"><svg viewBox="0 0 244.43135999999998 38.64066259228343" height="38.64066259228343" width="244.43135999999998" id="textblock"><g><svg viewBox="0 0 244.43135999999998 20.931241504836976" height="20.931241504836976" width="244.43135999999998"><g transform="matrix(1,0,0,1,0,0)"><svg width="244.43135999999998" viewBox="3.25 -35.01 408.8 35.01" height="20.931241504836976" data-palette-color="#2a2c35"><path d="M10.25-7.01L10.25 0 3.25 0 3.25-35.01 10.25-35.01 10.25-17.5 23.29-35.01 31.25-35.01 20.19-20.24 31.25 0 23.29 0 15.6-14.16 10.25-7.01ZM48.51-28L41.5-28 41.5-13.99 48.51-13.99Q49.95-13.99 51.22-14.54 52.49-15.09 53.44-16.04 54.39-16.99 54.94-18.27 55.49-19.56 55.49-21L55.49-21Q55.49-22.44 54.94-23.72 54.39-25 53.44-25.95 52.49-26.9 51.22-27.45 49.95-28 48.51-28L48.51-28ZM41.5-7.01L41.5 0 34.49 0 34.49-35.01 48.51-35.01Q50.44-35.01 52.22-34.51 54-34.01 55.55-33.09 57.1-32.18 58.38-30.9 59.67-29.61 60.58-28.05 61.5-26.49 62-24.71 62.5-22.92 62.5-21L62.5-21Q62.5-19.19 62.05-17.48 61.59-15.77 60.75-14.23 59.91-12.7 58.69-11.4 57.47-10.11 55.95-9.16L55.95-9.16 59.84 0 52.39 0 49.34-7.06 41.5-7.01ZM119.06-7.01L119.06 0 95.06 0 95.06-35.01 119.06-35.01 119.06-28 102.07-28 102.07-21 113.56-21 113.56-13.99 102.07-13.99 102.07-7.01 119.06-7.01ZM151.97-35.01L151.97 0 144.47 0 130.97-23.05 130.97 0 123.96 0 123.96-35.01 131.46-35.01 144.96-11.94 144.96-35.01 151.97-35.01ZM173.15-28L173.15 0 166.17 0 166.17-28 155.65-28 155.65-35.01 183.65-35.01 183.65-28 173.15-28ZM211.36-7.01L211.36 0 187.36 0 187.36-35.01 211.36-35.01 211.36-28 194.37-28 194.37-21 205.87-21 205.87-13.99 194.37-13.99 194.37-7.01 211.36-7.01ZM230.28-28L223.27-28 223.27-13.99 230.28-13.99Q231.72-13.99 232.99-14.54 234.26-15.09 235.21-16.04 236.16-16.99 236.71-18.27 237.26-19.56 237.26-21L237.26-21Q237.26-22.44 236.71-23.72 236.16-25 235.21-25.95 234.26-26.9 232.99-27.45 231.72-28 230.28-28L230.28-28ZM223.27-7.01L223.27 0 216.26 0 216.26-35.01 230.28-35.01Q232.21-35.01 233.99-34.51 235.77-34.01 237.32-33.09 238.87-32.18 240.15-30.9 241.44-29.61 242.35-28.05 243.27-26.49 243.77-24.71 244.27-22.92 244.27-21L244.27-21Q244.27-19.19 243.82-17.48 243.36-15.77 242.52-14.23 241.68-12.7 240.46-11.4 239.24-10.11 237.72-9.16L237.72-9.16 241.61 0 234.16 0 231.11-7.06 223.27-7.01ZM262.87-28L255.86-28 255.86-13.99 262.87-13.99Q264.31-13.99 265.58-14.54 266.85-15.09 267.8-16.04 268.75-16.99 269.3-18.27 269.85-19.56 269.85-21L269.85-21Q269.85-22.44 269.3-23.72 268.75-25 267.8-25.95 266.85-26.9 265.58-27.45 264.31-28 262.87-28L262.87-28ZM255.86-7.01L255.86 0 248.85 0 248.85-35.01 262.87-35.01Q264.8-35.01 266.58-34.51 268.36-34.01 269.91-33.09 271.46-32.18 272.74-30.9 274.03-29.61 274.94-28.05 275.86-26.49 276.36-24.71 276.86-22.92 276.86-21L276.86-21Q276.86-18.12 275.76-15.56 274.66-13.01 272.76-11.11 270.85-9.2 268.3-8.11 265.75-7.01 262.87-7.01L262.87-7.01 255.86-7.01ZM294.97-28L287.96-28 287.96-13.99 294.97-13.99Q296.41-13.99 297.68-14.54 298.95-15.09 299.9-16.04 300.85-16.99 301.4-18.27 301.95-19.56 301.95-21L301.95-21Q301.95-22.44 301.4-23.72 300.85-25 299.9-25.95 298.95-26.9 297.68-27.45 296.41-28 294.97-28L294.97-28ZM287.96-7.01L287.96 0 280.96 0 280.96-35.01 294.97-35.01Q296.9-35.01 298.68-34.51 300.46-34.01 302.01-33.09 303.56-32.18 304.85-30.9 306.13-29.61 307.04-28.05 307.96-26.49 308.46-24.71 308.96-22.92 308.96-21L308.96-21Q308.96-19.19 308.51-17.48 308.06-15.77 307.21-14.23 306.37-12.7 305.15-11.4 303.93-10.11 302.42-9.16L302.42-9.16 306.3 0 298.85 0 295.8-7.06 287.96-7.01ZM320.55-35.01L320.55 0 313.55 0 313.55-35.01 320.55-35.01ZM324.99-24.51L324.99-24.51Q324.99-26.68 325.82-28.59 326.65-30.49 328.08-31.92 329.51-33.35 331.42-34.18 333.32-35.01 335.49-35.01L335.49-35.01 351.56-35.01 351.56-28 335.49-28Q334.76-28 334.13-27.73 333.49-27.47 333.01-26.99 332.54-26.51 332.27-25.88 332-25.24 332-24.51L332-24.51Q332-23.78 332.27-23.13 332.54-22.49 333.01-22.01 333.49-21.53 334.13-21.26 334.76-21 335.49-21L335.49-21 342.5-21Q344.67-21 346.59-20.18 348.51-19.36 349.93-17.93 351.36-16.5 352.18-14.59 353-12.67 353-10.5L353-10.5Q353-8.33 352.18-6.42 351.36-4.52 349.93-3.09 348.51-1.66 346.59-0.83 344.67 0 342.5 0L342.5 0 326.95 0 326.95-7.01 342.5-7.01Q343.23-7.01 343.87-7.28 344.5-7.54 344.98-8.02 345.45-8.5 345.72-9.13 345.99-9.77 345.99-10.5L345.99-10.5Q345.99-11.23 345.72-11.87 345.45-12.5 344.98-12.98 344.5-13.45 343.87-13.72 343.23-13.99 342.5-13.99L342.5-13.99 335.49-13.99Q333.32-13.99 331.42-14.82 329.51-15.65 328.08-17.08 326.65-18.51 325.82-20.42 324.99-22.34 324.99-24.51ZM381.58-7.01L381.58 0 357.58 0 357.58-35.01 381.58-35.01 381.58-28 364.59-28 364.59-21 376.09-21 376.09-13.99 364.59-13.99 364.59-7.01 381.58-7.01ZM384.05-24.51L384.05-24.51Q384.05-26.68 384.88-28.59 385.71-30.49 387.14-31.92 388.56-33.35 390.47-34.18 392.37-35.01 394.55-35.01L394.55-35.01 410.61-35.01 410.61-28 394.55-28Q393.81-28 393.18-27.73 392.54-27.47 392.07-26.99 391.59-26.51 391.32-25.88 391.05-25.24 391.05-24.51L391.05-24.51Q391.05-23.78 391.32-23.13 391.59-22.49 392.07-22.01 392.54-21.53 393.18-21.26 393.81-21 394.55-21L394.55-21 401.55-21Q403.72-21 405.64-20.18 407.56-19.36 408.99-17.93 410.41-16.5 411.23-14.59 412.05-12.67 412.05-10.5L412.05-10.5Q412.05-8.33 411.23-6.42 410.41-4.52 408.99-3.09 407.56-1.66 405.64-0.83 403.72 0 401.55 0L401.55 0 386 0 386-7.01 401.55-7.01Q402.28-7.01 402.92-7.28 403.55-7.54 404.03-8.02 404.51-8.5 404.77-9.13 405.04-9.77 405.04-10.5L405.04-10.5Q405.04-11.23 404.77-11.87 404.51-12.5 404.03-12.98 403.55-13.45 402.92-13.72 402.28-13.99 401.55-13.99L401.55-13.99 394.55-13.99Q392.37-13.99 390.47-14.82 388.56-15.65 387.14-17.08 385.71-18.51 384.88-20.42 384.05-22.34 384.05-24.51Z" opacity="1" transform="matrix(1,0,0,1,0,0)" fill="#ffffff" class="wordmark-text-0" data-fill-palette-color="primary" id="text-0"></path></svg></g></svg></g><g transform="matrix(1,0,0,1,130.80684992051894,25.87260527433287)"><svg viewBox="0 0 113.62451007948104 12.768057317950555" height="12.768057317950555" width="113.62451007948104"><g transform="matrix(1,0,0,1,0,0)"><svg width="113.62451007948104" viewBox="3.17 -36.89 445.78999999999996 50.1" height="12.768057317950555" data-palette-color="#2a2c35"><path d="M3.17 0L15.5-34.69 20.21-34.69 32.54 0 28.34 0 24.83-10.08 10.52-10.08 7.01 0 3.17 0ZM23.56-13.72L17.68-30.64 11.77-13.72 23.56-13.72ZM38.16 0L38.16-24.12 40.96-24.12 41.84-22.07Q46.51-24.61 50.34-24.61L50.34-24.61Q52.32-24.61 53.78-23.99 55.25-23.36 56.05-22.42 56.86-21.48 57.33-20.06 57.81-18.63 57.94-17.33 58.08-16.04 58.08-14.38L58.08-14.38 58.08 0 54.07 0 54.07-14.65Q54.07-21 48.61-21L48.61-21Q45.77-21 42.16-19.12L42.16-19.12 42.16 0 38.16 0ZM73.77 1.2L63.69-24.12 68.09-24.12 75.8-3.66 82.98-24.12 87.13-24.12 73.21 12.96 68.94 12.96 73.77 1.2ZM105-3.15L105.56-0.42Q102.02 0.49 100.04 0.49 98.06 0.49 96.7-0.15 95.33-0.78 94.62-1.95 93.91-3.13 93.61-4.48 93.3-5.83 93.3-7.59L93.3-7.59 93.3-20.97 90.06-20.97 90.06-24.12 93.3-24.12 93.3-31.03 97.31-31.03 97.31-24.12 104.66-24.12 104.66-20.97 97.31-20.97 97.31-7.64Q97.31-2.64 101.26-2.64L101.26-2.64Q101.97-2.64 105-3.15L105-3.15ZM122.35-21L122.35-21Q119.5-21 115.91-19.12L115.91-19.12 115.91 0 111.9 0 111.9-36.89 115.91-36.89 115.91-22.29Q120.18-24.56 123.92-24.56L123.92-24.56Q125.53-24.56 126.81-24.15 128.09-23.73 128.92-23.11 129.75-22.49 130.35-21.5 130.95-20.51 131.25-19.64 131.56-18.77 131.72-17.58 131.87-16.38 131.91-15.63 131.95-14.87 131.95-13.84L131.95-13.84 131.95 0 127.85 0 127.85-14.58Q127.85-21 122.35-21ZM140.37-30.08L140.37-34.69 145.1-34.69 145.1-30.08 140.37-30.08ZM140.73 0L140.73-24.12 144.74-24.12 144.74 0 140.73 0ZM153.53 0L153.53-24.12 156.33-24.12 157.21-22.07Q161.87-24.61 165.71-24.61L165.71-24.61Q167.69-24.61 169.15-23.99 170.61-23.36 171.42-22.42 172.23-21.48 172.7-20.06 173.18-18.63 173.31-17.33 173.45-16.04 173.45-14.38L173.45-14.38 173.45 0 169.44 0 169.44-14.65Q169.44-21 163.97-21L163.97-21Q161.14-21 157.53-19.12L157.53-19.12 157.53 0 153.53 0ZM192.17-24.61L192.17-24.61Q195.05-24.61 198.84-22.68L198.84-22.68 199.35-24.12 202.16-24.12 202.16 1.51Q202.16 2.25 202.11 2.93 202.06 3.61 201.81 4.86 201.57 6.1 201.13 7.13 200.69 8.15 199.8 9.34 198.91 10.52 197.7 11.33 196.49 12.13 194.57 12.67 192.66 13.21 190.29 13.21L190.29 13.21Q186.55 13.21 182.82 11.65L182.82 11.65 183.94 8.74Q186.95 9.86 189.78 9.86L189.78 9.86Q198.15 9.86 198.15 0.61L198.15 0.61 198.15-1.17Q195 0.49 191.78 0.49L191.78 0.49Q190.22 0.49 188.73 0.09 187.24-0.32 185.81-1.26 184.38-2.2 183.32-3.6 182.26-5 181.61-7.17 180.96-9.33 180.96-11.99L180.96-11.99Q180.96-14.79 181.75-17.05 182.53-19.31 183.72-20.68 184.92-22.05 186.47-22.97 188.02-23.9 189.44-24.26 190.85-24.61 192.17-24.61ZM192.41-21.36L192.41-21.36Q189.02-21.36 186.95-18.92 184.87-16.48 184.87-12.45L184.87-12.45Q184.87-9.77 185.72-7.62 186.58-5.47 188.43-4.14 190.29-2.81 192.9-2.81L192.9-2.81Q195.56-2.81 198.15-4.2L198.15-4.2 198.15-20Q194.81-21.36 192.41-21.36ZM223.39 0L235.72-34.69 240.43-34.69 252.76 0 248.56 0 245.05-10.08 230.74-10.08 227.22 0 223.39 0ZM243.78-13.72L237.89-30.64 231.98-13.72 243.78-13.72ZM258.37 0L258.37-24.12 261.18-24.12 262.06-22.07Q266.72-24.61 270.56-24.61L270.56-24.61Q272.53-24.61 274-23.99 275.46-23.36 276.27-22.42 277.07-21.48 277.55-20.06 278.03-18.63 278.16-17.33 278.3-16.04 278.3-14.38L278.3-14.38 278.3 0 274.29 0 274.29-14.65Q274.29-21 268.82-21L268.82-21Q265.99-21 262.38-19.12L262.38-19.12 262.38 0 258.37 0ZM293.99 1.2L283.91-24.12 288.3-24.12 296.02-3.66 303.2-24.12 307.35-24.12 293.43 12.96 289.16 12.96 293.99 1.2ZM318.6 0L310.03-24.12 314.3-24.12 320.84-3.88 327.05-24.12 330.98-24.12 337.42-3.91 343.96-24.12 348.24-24.12 339.42 0 335.39 0 328.97-19.56 322.63 0 318.6 0ZM364.79-21L364.79-21Q361.93-21 358.34-19.12L358.34-19.12 358.34 0 354.34 0 354.34-36.89 358.34-36.89 358.34-22.29Q362.61-24.56 366.35-24.56L366.35-24.56Q367.96-24.56 369.24-24.15 370.52-23.73 371.35-23.11 372.18-22.49 372.78-21.5 373.38-20.51 373.69-19.64 373.99-18.77 374.15-17.58 374.31-16.38 374.34-15.63 374.38-14.87 374.38-13.84L374.38-13.84 374.38 0 370.28 0 370.28-14.58Q370.28-21 364.79-21ZM393.54-24.58L393.54-24.58Q395.3-24.58 396.71-24.16 398.11-23.73 399.04-23.07 399.97-22.41 400.64-21.35 401.31-20.29 401.66-19.3 402.02-18.31 402.21-16.92 402.41-15.53 402.46-14.5 402.5-13.48 402.5-12.08L402.5-12.08 402.5-10.18 385.93-10.18Q385.93-8.86 386.53-7.56 387.12-6.25 388.21-5.16 389.3-4.08 391.07-3.39 392.84-2.71 394.98-2.71L394.98-2.71Q397.52-2.71 400.48-3.59L400.48-3.59 401.19-0.85Q397.26 0.49 393.47 0.49L393.47 0.49Q390.81 0.49 388.75-0.22 386.68-0.93 385.43-2.06 384.17-3.2 383.36-4.79 382.56-6.37 382.25-7.95 381.95-9.52 381.95-11.28L381.95-11.28Q381.95-13.99 382.61-16.24 383.27-18.48 384.39-20.01 385.51-21.53 387.01-22.58 388.51-23.63 390.16-24.11 391.81-24.58 393.54-24.58ZM392.69-21.12L392.69-21.12Q390.54-21.12 388.99-19.93 387.44-18.75 386.73-16.99 386.02-15.23 386.02-13.21L386.02-13.21 398.62-13.21Q398.62-21.12 392.69-21.12ZM412.88-24.12L413.63-22.31Q416.69-24.58 420.37-24.58L420.37-24.58Q422.91-24.58 424.99-23.63L424.99-23.63 423.77-20.43Q421.86-21.17 419.81-21.17L419.81-21.17Q416.76-21.17 414.07-19.48L414.07-19.48 414.07 0 410.07 0 410.07-24.12 412.88-24.12ZM440-24.58L440-24.58Q441.76-24.58 443.16-24.16 444.56-23.73 445.49-23.07 446.42-22.41 447.09-21.35 447.76-20.29 448.12-19.3 448.47-18.31 448.67-16.92 448.86-15.53 448.91-14.5 448.96-13.48 448.96-12.08L448.96-12.08 448.96-10.18 432.38-10.18Q432.38-8.86 432.98-7.56 433.58-6.25 434.66-5.16 435.75-4.08 437.52-3.39 439.29-2.71 441.44-2.71L441.44-2.71Q443.98-2.71 446.93-3.59L446.93-3.59 447.64-0.85Q443.71 0.49 439.93 0.49L439.93 0.49Q437.26 0.49 435.2-0.22 433.14-0.93 431.88-2.06 430.62-3.2 429.82-4.79 429.01-6.37 428.71-7.95 428.4-9.52 428.4-11.28L428.4-11.28Q428.4-13.99 429.06-16.24 429.72-18.48 430.84-20.01 431.97-21.53 433.47-22.58 434.97-23.63 436.62-24.11 438.27-24.58 440-24.58ZM439.14-21.12L439.14-21.12Q437-21.12 435.45-19.93 433.9-18.75 433.19-16.99 432.48-15.23 432.48-13.21L432.48-13.21 445.08-13.21Q445.08-21.12 439.14-21.12Z" opacity="1" transform="matrix(1,0,0,1,0,0)" fill="#ffffff" class="slogan-text-1" data-fill-palette-color="secondary" id="text-1"></path></svg></g></svg></g></svg></g></svg></g></svg></g></svg></g></svg></g><path d="M184.252 98.28L184.252 32.511 2.073 32.511 2.073 214.689 184.252 214.689 184.252 148.92 182.364 148.92 182.364 212.802 3.96 212.802 3.96 34.398 182.364 34.398 182.364 98.28Z" fill="#ffffff" stroke="transparent" data-fill-palette-color="tertiary"></path></svg></g><defs></defs></svg><rect width="395.52" height="247.2" fill="none" stroke="none" visibility="hidden"></rect></g></svg></g></svg>